<?xml version="1.0" encoding="UTF-8"?>
<svg id="Vrstva_1" xmlns="http://www.w3.org/2000/svg" version="1.1" viewBox="0 0 320 300">
  <!-- Generator: Adobe Illustrator 30.1.0, SVG Export Plug-In . SVG Version: 2.1.1 Build 136)  -->
  <defs>
    <style>
      .st0 {
        fill: #1d1d1b;
      }

      .st1 {
        fill: #fff;
      }

      .st2 {
        fill: #e30613;
      }

      .st3 {
        fill: #db0b2a;
      }
    </style>
  </defs>
  <path class="st0" d="M314.2,275v17.1c0,1.6-1.4,2.9-3.1,2.9h-16.8c-1.7,0-3.1-1.3-3.1-2.9v-17.1h22.9Z"/>
  <path class="st0" d="M117.8,10l8.6,20c3.8-.8,7.6-1.4,11.4-1.9l-6.7-20.8c-4.5.7-9,1.7-13.3,2.8Z"/>
  <path class="st0" d="M143.5,5.7l6.9,21.3c2.8-.1,5.6-.2,8.4-.2l-4.7-21.7c-3.6.1-7.1.3-10.6.7Z"/>
  <path class="st0" d="M44,53.3C-1,97.9-4.5,174.3,24.6,223.8-1.8,178,8.3,113.9,53,69.7c18.8-18.6,39.8-30.4,61.8-36.8l-8.4-19.5c-22.7,7.7-43.1,20.9-62.3,40Z"/>
  <path class="st0" d="M178.9,27.8l-5.2-22.6c-2.3-.1-4.5-.2-6.8-.3l4.8,22.2c2.4.2,4.7.4,7.1.6Z"/>
  <g>
    <path class="st2" d="M65.9,167.6c0,14.9,3.8,28.9,11.3,42.1,4.9,8.6,10.4,15.5,16.3,20.6,6,5.2,14.5,10.4,25.8,15.7V96.1c-35.6,16-53.4,39.9-53.4,71.6Z"/>
    <path class="st2" d="M266.2,99.5v22.1h-33.2c-20.4-24.1-44-36.2-70.7-36.2s-9.1.5-14.9,1.6v164.8c6.1.6,10.5.9,12.9.9,15.3,0,29.4-3,42.3-9,12.8-6,25-15.2,36.6-27.8v-32.3h-31.8v-26.4h59.9v115.5h-28.1v-20.3c-22.6,16.4-50.3,24.6-82.9,24.6s-64.5-11-86.5-32.9c-21.3-21.4-31.9-46.7-31.9-76.1s15.3-61.7,45.9-82c11.4-7.6,23.8-13.4,37.3-17.5,13.5-4.1,26.8-6.2,40-6.2s27.5,2,39.5,6c12,4,24.5,10.5,37.5,19.5v-20.6c-49.1-37.6-126.1-31.1-176.7,19-53.3,52.8-45.1,126.8,3.3,171.3,22.1,20.3,48.7,31.5,76.2,32.6,1.4.3,2.9.6,4.6.8,44.8,5.3,74.8-8.9,74.8-8.9,8.1,13.9,17.7,12.5,17.7,12.5h21.6c17.7-2.4,18.5-19.4,18.5-19.4v-103.8c3.9-25.1,0-50.2-11.9-71.7Z"/>
    <path class="st1" d="M200.6,68.2c-12-4-25.2-6-39.5-6s-26.5,2.1-40,6.2c-13.5,4.1-25.9,10-37.3,17.5-30.6,20.3-45.9,47.7-45.9,82s10.6,54.8,31.9,76.1c21.9,21.9,50.8,32.9,86.5,32.9s60.3-8.2,82.9-24.6v20.3h28.1v-115.5h-59.9v26.4h31.8v32.3c-11.5,12.5-23.7,21.8-36.6,27.8-12.9,6-26.9,9-42.3,9s-6.8-.3-12.9-.9V87.1c5.8-1.1,10.8-1.6,14.9-1.6,26.7,0,50.2,12.1,70.7,36.2h33.1v-22.1c-5.2-9.5-12-18.3-20.4-26-2.5-2.3-5-4.4-7.7-6.4v20.6c-12.9-9.1-25.4-15.6-37.4-19.5ZM119.3,246.1c-11.2-5.3-19.8-10.5-25.8-15.7-6-5.2-11.4-12.1-16.3-20.6-7.5-13.2-11.3-27.2-11.3-42.1,0-31.7,17.8-55.5,53.4-71.6v150Z"/>
  </g>
  <g>
    <path class="st0" d="M187.2,29.3l-.6-22.9,6.1,2.1v14.9c-.1,0,8.5-12,8.5-12l6.1,2.1-.6,14.7,9.1-11.8,6.2,2.1-14.6,17.7-6-2.1.4-14.5-8.5,11.7-6.1-2.1Z"/>
    <path class="st0" d="M221.4,42.4l3.9-22.6,5.6,3.2-3,14.6,10.8-10.1,5.5,3.2-3.5,14.3,11.2-9.8,5.7,3.3-17.8,14.6-5.5-3.2,3.2-14.1-10.6,9.8-5.6-3.2Z"/>
    <path class="st0" d="M251.9,62l9.5-20.9,4.6,4.5-6.6,13.3,13-7,4.5,4.5-7,13,13.4-6.6,4.7,4.6-20.9,9.6-4.5-4.5,6.7-12.9-12.8,6.8-4.6-4.5Z"/>
    <path class="st0" d="M272,84.1l4.7-3.2,3.7,5.5-4.7,3.2-3.7-5.5Z"/>
    <path class="st0" d="M277.6,94.4l2.2,7.3c-.7.4-1,.9-1.1,1.4-.1.7,0,1.7.6,3,.7,1.6,1.4,2.7,2.1,3.3.5.4,1.1.7,1.8.7.5,0,1.4-.2,2.5-.7l2.9-1.2c-2.9-1-4.9-2.8-6.1-5.6-1.3-3.1-1.2-6.1.3-8.8,1.2-2.2,3.1-3.8,5.7-4.9,3.3-1.4,6.3-1.5,8.8-.3,2.5,1.1,4.4,3.1,5.5,5.9,1.2,2.9,1.1,5.7-.2,8.5l2.8-1.2,2.4,5.7-17.9,7.4c-2.3,1-4.2,1.5-5.5,1.5-1.3,0-2.5-.2-3.5-.8-1-.5-2-1.4-2.9-2.6-.9-1.2-1.8-2.9-2.7-4.9-1.6-3.9-2.2-7-1.8-9.1.5-2.1,1.6-3.6,3.3-4.3.2,0,.4-.2.6-.2ZM291.6,95.1c-2.1.9-3.4,2-4,3.3-.6,1.4-.6,2.7,0,4.1.6,1.5,1.6,2.6,3.1,3.2,1.4.6,3.1.5,5.1-.3,2.1-.9,3.4-2,4-3.4.6-1.4.6-2.9,0-4.4-.6-1.5-1.6-2.5-3-3-1.4-.5-3.1-.4-5.1.4Z"/>
    <path class="st0" d="M304.6,123.4v-6.1c2.2.4,3.9,1.3,5.1,2.8,1.2,1.5,2.1,3.9,2.5,7.1.4,2.9.5,5.2,0,6.7-.4,1.5-1,2.6-1.8,3.4-.8.7-2.4,1.3-4.9,1.6l-6.6.9c-1.9.3-3.2.6-4.1.9-.9.3-1.7.9-2.7,1.6l-1-6.5c.3-.2.8-.5,1.5-.9.3-.2.5-.3.6-.3-1.1-1-2-2.1-2.6-3.3-.6-1.2-1.1-2.5-1.3-4-.4-2.6,0-4.7.9-6.3,1-1.6,2.4-2.6,4.2-2.9,1.2-.2,2.3,0,3.4.5,1,.5,1.9,1.4,2.6,2.5.7,1.1,1.4,2.8,2.1,5,.9,3,1.7,5.1,2.3,6.2h.6c1.1-.2,1.8-.7,2.2-1.4.4-.7.4-1.9.2-3.6-.2-1.2-.5-2.1-1-2.7-.5-.6-1.3-1-2.3-1.3ZM301.3,132.9c-.4-.8-.8-2.1-1.4-3.8-.6-1.8-1.1-2.9-1.5-3.4-.6-.8-1.4-1.1-2.2-1-.8.1-1.4.6-1.9,1.3-.5.8-.6,1.7-.5,2.7.2,1.2.7,2.3,1.5,3.2.6.7,1.3,1.1,2.1,1.3.5.1,1.4,0,2.8-.1l1.1-.2Z"/>
    <path class="st0" d="M291.8,153.2v-6.7h21.5v6.2h-3.1c1.4,1.1,2.4,2,2.8,2.9.4.8.7,1.8.7,2.9s-.4,3-1.1,4.4l-5-2.1c.6-1.1.9-2.2.9-3.1s-.2-1.7-.7-2.4c-.4-.6-1.2-1.2-2.4-1.5-1.1-.4-3.5-.6-7.2-.6h-6.6Z"/>
    <path class="st0" d="M291.8,172.6v-6.7h21.5v6.2h-3.1c1.4,1.1,2.4,2,2.8,2.9.4.8.7,1.8.7,2.9s-.4,3-1.1,4.4l-5-2.1c.6-1.1.9-2.2.9-3.1s-.2-1.7-.7-2.4c-.4-.6-1.2-1.2-2.4-1.5-1.1-.4-3.5-.6-7.2-.6h-6.6Z"/>
    <path class="st0" d="M313.3,182.3v7.1l-15.3,6,15.3,5.9v6.9l-20.7-8.9-3.8-1.6c-1.2-.6-2.2-1.1-2.9-1.7-.7-.5-1.2-1.1-1.6-1.8-.4-.7-.7-1.5-1-2.5-.2-1-.3-2.1-.3-3.4s.1-2.5.4-3.8l4.4-.6c-.2,1-.3,2-.3,2.8,0,1.5.4,2.7,1.2,3.4.8.7,1.8,1.3,3,1.7l21.6-9.6Z"/>
    <path class="st0" d="M291.8,209.3h5.7v6.7h-5.7v-6.7Z"/>
    <path class="st0" d="M307,245.2l-1-6.5c1.1-.2,1.9-.7,2.5-1.5.6-.8.8-1.8.8-3.1s-.5-3-1.5-4c-1-1-2.6-1.5-4.9-1.5s-4.4.5-5.4,1.5c-1.1,1-1.6,2.4-1.6,4.1s.3,2.3.9,3.1c.6.8,1.7,1.4,3.2,1.7l-.9,6.5c-2.6-.7-4.5-2-5.8-3.9-1.3-1.9-1.9-4.5-1.9-7.7s1-6.6,3-8.8c2-2.2,4.7-3.3,8.2-3.3s6.3,1.1,8.3,3.3c2,2.2,3,5.2,3,8.9s-.6,5.5-1.7,7.3c-1.1,1.8-2.8,3.1-5.1,3.9Z"/>
    <path class="st0" d="M291.8,248h4.5l9.3,9.4c1.5,1.5,2.6,2.7,3.2,3.4,0-.8,0-1.8,0-3.1v-8.9c0,0,4.7,0,4.7,0v20.8h-4l-9.5-9.6-3.1-3.4c0,1.9.1,3,.1,3.4v10.3h-5v-22.5Z"/>
  </g>
  <g>
    <g>
      <path class="st3" d="M165.4,143.9l2.6-.3c.3,2.2,1.3,3.2,2.9,3.2s1.5-.2,1.9-.7c.5-.4.7-1,.7-1.6s0-.7-.2-1c-.2-.3-.4-.5-.7-.7s-1.1-.5-2.4-.9c-1.1-.4-2-.8-2.5-1.2-.5-.4-1-1-1.3-1.7-.3-.7-.5-1.4-.5-2.2s.2-1.8.6-2.5c.4-.7,1-1.3,1.7-1.7.7-.4,1.6-.6,2.6-.6,1.6,0,2.8.4,3.7,1.3.9.9,1.3,2.2,1.4,3.8h-2.7c-.1-.8-.4-1.4-.8-1.8-.4-.4-.9-.5-1.7-.5s-1.3.2-1.7.5c-.4.3-.6.7-.6,1.2s.2.8.5,1.2c.4.3,1.2.7,2.4,1,1.3.4,2.3.8,2.9,1.3.6.5,1.1,1,1.4,1.8.3.7.5,1.6.5,2.6,0,1.5-.4,2.7-1.3,3.7-.9,1-2.2,1.5-4,1.5-3.2,0-5-1.9-5.4-5.8Z"/>
      <path class="st3" d="M178.3,149.5v-17h2.7v17h-2.7Z"/>
      <path class="st3" d="M183.6,149.5v-17h2.6l5.4,11.4v-11.4h2.5v17h-2.7l-5.3-11.1v11.1h-2.5Z"/>
      <path class="st3" d="M205.3,143.2l2.6,1c-.4,1.9-1.1,3.3-2,4.2-.9.9-2.1,1.3-3.5,1.3s-3.1-.7-4.2-2.1c-1.2-1.6-1.9-3.8-1.9-6.5s.6-5.2,1.9-6.8c1.1-1.4,2.5-2.1,4.3-2.1s2.7.5,3.7,1.6c.7.8,1.2,1.9,1.6,3.4l-2.6.8c-.2-.9-.5-1.6-1-2.1-.5-.5-1.1-.7-1.8-.7-1,0-1.8.4-2.4,1.3-.6.9-.9,2.4-.9,4.4s.3,3.7.9,4.6c.6.9,1.4,1.4,2.3,1.4s1.3-.3,1.8-.9c.5-.6.9-1.5,1.1-2.7Z"/>
      <path class="st3" d="M210.2,149.5v-17h9.8v2.9h-7.1v3.8h6.6v2.9h-6.6v4.6h7.4v2.9h-10.1Z"/>
      <path class="st3" d="M233.6,149.5h-2.5v-12.3c-.9,1.1-2,1.9-3.3,2.5v-3c.7-.3,1.4-.8,2.2-1.6.8-.8,1.3-1.6,1.6-2.6h2v17Z"/>
      <path class="st3" d="M237.5,145.5l2.5-.3c.1,1.3.6,1.9,1.4,1.9s1-.3,1.4-.9c.4-.6.6-1.9.7-3.8-.3.5-.7.8-1.1,1.1-.4.2-.8.4-1.3.4-1,0-1.9-.5-2.7-1.5-.8-1-1.2-2.3-1.2-4s.4-3.2,1.2-4.2c.8-1,1.8-1.5,3-1.5s2.4.7,3.3,2c.9,1.3,1.3,3.5,1.3,6.6s-.5,5.3-1.4,6.7c-.9,1.4-2.1,2-3.5,2s-1.8-.3-2.5-1c-.6-.7-1.1-1.8-1.2-3.2ZM243.3,138.5c0-1.1-.2-1.9-.6-2.4-.4-.6-.8-.8-1.3-.8s-.9.2-1.2.7c-.3.5-.5,1.2-.5,2.3s.2,1.9.5,2.4c.3.5.8.8,1.3.8s.9-.2,1.2-.7c.3-.5.5-1.2.5-2.2Z"/>
      <path class="st3" d="M247.8,145.5l2.5-.3c.1,1.3.6,1.9,1.4,1.9s1-.3,1.4-.9c.4-.6.6-1.9.7-3.8-.3.5-.7.8-1.1,1.1-.4.2-.8.4-1.3.4-1,0-1.9-.5-2.7-1.5-.8-1-1.2-2.3-1.2-4s.4-3.2,1.2-4.2c.8-1,1.8-1.5,3-1.5s2.4.7,3.3,2c.9,1.3,1.3,3.5,1.3,6.6s-.5,5.3-1.4,6.7c-.9,1.4-2.1,2-3.5,2s-1.8-.3-2.5-1c-.6-.7-1.1-1.8-1.2-3.2ZM253.5,138.5c0-1.1-.2-1.9-.6-2.4-.4-.6-.8-.8-1.3-.8s-.9.2-1.2.7c-.3.5-.5,1.2-.5,2.3s.2,1.9.5,2.4c.3.5.8.8,1.3.8s.9-.2,1.2-.7c.3-.5.5-1.2.5-2.2Z"/>
      <path class="st3" d="M264.5,149.5h-2.5v-12.3c-.9,1.1-2,1.9-3.3,2.5v-3c.7-.3,1.4-.8,2.2-1.6.8-.8,1.3-1.6,1.6-2.6h2v17Z"/>
    </g>
    <g>
      <path class="st1" d="M165.4,143.9l2.6-.3c.3,2.2,1.3,3.2,2.9,3.2s1.5-.2,1.9-.7c.5-.4.7-1,.7-1.6s0-.7-.2-1c-.2-.3-.4-.5-.7-.7s-1.1-.5-2.4-.9c-1.1-.4-2-.8-2.5-1.2-.5-.4-1-1-1.3-1.7-.3-.7-.5-1.4-.5-2.2s.2-1.8.6-2.5c.4-.7,1-1.3,1.7-1.7.7-.4,1.6-.6,2.6-.6,1.6,0,2.8.4,3.7,1.3.9.9,1.3,2.2,1.4,3.8h-2.7c-.1-.8-.4-1.4-.8-1.8-.4-.4-.9-.5-1.7-.5s-1.3.2-1.7.5c-.4.3-.6.7-.6,1.2s.2.8.5,1.2c.4.3,1.2.7,2.4,1,1.3.4,2.3.8,2.9,1.3.6.5,1.1,1,1.4,1.8.3.7.5,1.6.5,2.6,0,1.5-.4,2.7-1.3,3.7-.9,1-2.2,1.5-4,1.5-3.2,0-5-1.9-5.4-5.8Z"/>
      <path class="st1" d="M178.3,149.5v-17h2.7v17h-2.7Z"/>
      <path class="st1" d="M183.6,149.5v-17h2.6l5.4,11.4v-11.4h2.5v17h-2.7l-5.3-11.1v11.1h-2.5Z"/>
      <path class="st1" d="M205.3,143.2l2.6,1c-.4,1.9-1.1,3.3-2,4.2-.9.9-2.1,1.3-3.5,1.3s-3.1-.7-4.2-2.1c-1.2-1.6-1.9-3.8-1.9-6.5s.6-5.2,1.9-6.8c1.1-1.4,2.5-2.1,4.3-2.1s2.7.5,3.7,1.6c.7.8,1.2,1.9,1.6,3.4l-2.6.8c-.2-.9-.5-1.6-1-2.1-.5-.5-1.1-.7-1.8-.7-1,0-1.8.4-2.4,1.3-.6.9-.9,2.4-.9,4.4s.3,3.7.9,4.6c.6.9,1.4,1.4,2.3,1.4s1.3-.3,1.8-.9c.5-.6.9-1.5,1.1-2.7Z"/>
      <path class="st1" d="M210.2,149.5v-17h9.8v2.9h-7.1v3.8h6.6v2.9h-6.6v4.6h7.4v2.9h-10.1Z"/>
      <path class="st1" d="M233.6,149.5h-2.5v-12.3c-.9,1.1-2,1.9-3.3,2.5v-3c.7-.3,1.4-.8,2.2-1.6.8-.8,1.3-1.6,1.6-2.6h2v17Z"/>
      <path class="st1" d="M237.5,145.5l2.5-.3c.1,1.3.6,1.9,1.4,1.9s1-.3,1.4-.9c.4-.6.6-1.9.7-3.8-.3.5-.7.8-1.1,1.1-.4.2-.8.4-1.3.4-1,0-1.9-.5-2.7-1.5-.8-1-1.2-2.3-1.2-4s.4-3.2,1.2-4.2c.8-1,1.8-1.5,3-1.5s2.4.7,3.3,2c.9,1.3,1.3,3.5,1.3,6.6s-.5,5.3-1.4,6.7c-.9,1.4-2.1,2-3.5,2s-1.8-.3-2.5-1c-.6-.7-1.1-1.8-1.2-3.2ZM243.3,138.5c0-1.1-.2-1.9-.6-2.4-.4-.6-.8-.8-1.3-.8s-.9.2-1.2.7c-.3.5-.5,1.2-.5,2.3s.2,1.9.5,2.4c.3.5.8.8,1.3.8s.9-.2,1.2-.7c.3-.5.5-1.2.5-2.2Z"/>
      <path class="st1" d="M247.8,145.5l2.5-.3c.1,1.3.6,1.9,1.4,1.9s1-.3,1.4-.9c.4-.6.6-1.9.7-3.8-.3.5-.7.8-1.1,1.1-.4.2-.8.4-1.3.4-1,0-1.9-.5-2.7-1.5-.8-1-1.2-2.3-1.2-4s.4-3.2,1.2-4.2c.8-1,1.8-1.5,3-1.5s2.4.7,3.3,2c.9,1.3,1.3,3.5,1.3,6.6s-.5,5.3-1.4,6.7c-.9,1.4-2.1,2-3.5,2s-1.8-.3-2.5-1c-.6-.7-1.1-1.8-1.2-3.2ZM253.5,138.5c0-1.1-.2-1.9-.6-2.4-.4-.6-.8-.8-1.3-.8s-.9.2-1.2.7c-.3.5-.5,1.2-.5,2.3s.2,1.9.5,2.4c.3.5.8.8,1.3.8s.9-.2,1.2-.7c.3-.5.5-1.2.5-2.2Z"/>
      <path class="st1" d="M264.5,149.5h-2.5v-12.3c-.9,1.1-2,1.9-3.3,2.5v-3c.7-.3,1.4-.8,2.2-1.6.8-.8,1.3-1.6,1.6-2.6h2v17Z"/>
    </g>
  </g>
</svg>